<?xml version="1.0" standalone="no"?>
<!DOCTYPE svg PUBLIC "-//W3C//DTD SVG 20010904//EN"
 "http://www.w3.org/TR/2001/REC-SVG-20010904/DTD/svg10.dtd">
<svg version="1.0" xmlns="http://www.w3.org/2000/svg"
 width="152.000000pt" height="152.000000pt" viewBox="0 0 152.000000 152.000000"
 preserveAspectRatio="xMidYMid meet">
<metadata>
Created by Suraj
</metadata>
<g transform="translate(0.000000,152.000000) scale(0.100000,-0.100000)"
stroke="none">
<path fill="#f44336"  d="M325 1410 c-3 -5 -13 -10 -22 -10 -8 0 -27 -9 -43 -20 -15 -11 -30
-17 -34 -15 -3 3 -4 3 -2 0 2 -3 -12 -22 -30 -42 -18 -20 -31 -39 -29 -43 2
-3 -2 -18 -9 -32 -8 -15 -14 -66 -15 -127 l-2 -101 56 0 55 0 0 113 c0 126 5
139 67 171 29 14 74 16 368 16 l335 -1 30 -25 c16 -14 30 -31 30 -38 0 -13 88
-66 109 -66 16 0 14 25 -6 68 -9 20 -15 40 -15 45 1 4 -3 7 -9 7 -5 0 -8 3 -6
8 2 4 -4 15 -15 25 -10 9 -18 14 -18 10 0 -3 -9 4 -20 17 -11 13 -20 21 -20
17 0 -3 -17 3 -37 13 -35 17 -69 19 -375 20 -220 0 -339 -3 -343 -10z"/>
<path fill="#3d5fcc"  d="M849 1174 c-80 -24 -164 -119 -193 -216 -5 -17 -27 -18 -280 -18
-236 0 -277 -2 -290 -16 -30 -30 -16 -67 29 -76 19 -3 20 -13 25 -158 5 -134
9 -161 27 -196 30 -56 94 -109 148 -123 71 -18 659 -15 721 4 87 26 163 122
164 208 l0 39 -29 -24 c-15 -14 -42 -30 -59 -37 -17 -7 -34 -22 -38 -33 -3
-11 -20 -28 -37 -39 -30 -18 -54 -19 -365 -19 -291 0 -337 2 -362 16 -52 32
-60 58 -60 214 l0 141 53 -3 52 -3 5 -123 c4 -94 8 -125 20 -132 23 -15 45
-12 63 8 14 15 17 41 17 136 l0 117 96 -3 96 -3 19 -51 c26 -69 76 -124 145
-159 49 -25 71 -30 129 -29 94 0 145 17 197 64 95 84 129 207 92 326 -24 77
-105 162 -178 187 -59 20 -144 21 -207 1z m205 -119 c46 -32 56 -44 76 -86 46
-102 8 -204 -90 -246 -54 -23 -141 -33 -147 -17 -3 8 -9 11 -14 8 -5 -3 -9 0
-9 5 0 6 -4 11 -10 11 -13 0 -64 53 -68 71 -2 8 -10 20 -19 27 -9 6 -12 12 -7
12 10 0 10 9 4 60 -1 8 -6 4 -10 -10 -15 -46 -10 6 5 57 29 99 117 150 224
131 25 -4 54 -15 65 -23z"/>
</g>
</svg>
